<mxfile host="app.diagrams.net" modified="2024-06-10T07:11:17.788Z" agent="Mozilla/5.0 (Macintosh; Intel Mac OS X 10_15_7) AppleWebKit/605.1.15 (KHTML, like Gecko) Version/17.5 Safari/605.1.15" version="24.5.2" etag="E7w3NXPYru_jKliwfzVP" type="github">
  <diagram name="Page-1" id="bDSy-9-ZutS4Ymi5_6-K">
    <mxGraphModel>
      <root>
        <mxCell id="0" />
        <mxCell id="1" parent="0" />
      </root>
    </mxGraphModel>
  </diagram>
</mxfile>
